<mxfile host="app.diagrams.net" modified="2024-11-15T22:14:16.162Z" agent="Mozilla/5.0 (Windows NT 10.0; Win64; x64) AppleWebKit/537.36 (KHTML, like Gecko) Chrome/130.0.0.0 Safari/537.36 Edg/130.0.0.0" etag="OBM6A8UzzEPWaqBaKEk-" version="24.2.5" type="github">
  <diagram name="Page-1" id="xc5ac43oRYj1VOecW5Tl">
    <mxGraphModel dx="2178" dy="1386" grid="1" gridSize="10" guides="1" tooltips="1" connect="1" arrows="1" fold="1" page="0" pageScale="1" pageWidth="827" pageHeight="1169" math="0" shadow="0">
      <root>
        <mxCell id="0" />
        <mxCell id="1" parent="0" />
        <mxCell id="uS74tkU6HloKjrL8f_Z_-2" value="" style="ellipse;whiteSpace=wrap;html=1;aspect=fixed;fillColor=#e1d5e7;strokeColor=#9673a6;" vertex="1" parent="1">
          <mxGeometry x="-107.5" y="-217.5" width="607.5" height="607.5" as="geometry" />
        </mxCell>
        <mxCell id="uS74tkU6HloKjrL8f_Z_-1" value="&lt;div&gt;&lt;br&gt;&lt;/div&gt;" style="ellipse;whiteSpace=wrap;html=1;aspect=fixed;fillColor=#d5e8d4;strokeColor=#82b366;" vertex="1" parent="1">
          <mxGeometry x="50" y="-60" width="275" height="275" as="geometry" />
        </mxCell>
        <mxCell id="uS74tkU6HloKjrL8f_Z_-8" value="Browser" style="whiteSpace=wrap;html=1;aspect=fixed;" vertex="1" parent="1">
          <mxGeometry x="-250" y="18" width="80" height="80" as="geometry" />
        </mxCell>
        <mxCell id="uS74tkU6HloKjrL8f_Z_-12" value="Outside" style="text;strokeColor=none;fillColor=none;html=1;fontSize=24;fontStyle=1;verticalAlign=middle;align=center;" vertex="1" parent="1">
          <mxGeometry x="110" y="-170" width="100" height="40" as="geometry" />
        </mxCell>
        <mxCell id="uS74tkU6HloKjrL8f_Z_-13" value="Inside" style="text;strokeColor=none;fillColor=none;html=1;fontSize=24;fontStyle=1;verticalAlign=middle;align=center;" vertex="1" parent="1">
          <mxGeometry x="137.5" y="-30" width="100" height="40" as="geometry" />
        </mxCell>
        <mxCell id="uS74tkU6HloKjrL8f_Z_-14" style="edgeStyle=orthogonalEdgeStyle;rounded=0;orthogonalLoop=1;jettySize=auto;html=1;entryX=0;entryY=0.5;entryDx=0;entryDy=0;" edge="1" parent="1" source="uS74tkU6HloKjrL8f_Z_-8" target="uS74tkU6HloKjrL8f_Z_-17">
          <mxGeometry relative="1" as="geometry" />
        </mxCell>
        <mxCell id="uS74tkU6HloKjrL8f_Z_-20" style="edgeStyle=orthogonalEdgeStyle;rounded=0;orthogonalLoop=1;jettySize=auto;html=1;exitX=1;exitY=0.5;exitDx=0;exitDy=0;" edge="1" parent="1" source="uS74tkU6HloKjrL8f_Z_-17" target="uS74tkU6HloKjrL8f_Z_-19">
          <mxGeometry relative="1" as="geometry" />
        </mxCell>
        <mxCell id="uS74tkU6HloKjrL8f_Z_-34" style="edgeStyle=orthogonalEdgeStyle;rounded=0;orthogonalLoop=1;jettySize=auto;html=1;exitX=1;exitY=0.5;exitDx=0;exitDy=0;" edge="1" parent="1" source="uS74tkU6HloKjrL8f_Z_-19" target="uS74tkU6HloKjrL8f_Z_-31">
          <mxGeometry relative="1" as="geometry" />
        </mxCell>
        <mxCell id="uS74tkU6HloKjrL8f_Z_-19" value="Application" style="rounded=0;whiteSpace=wrap;html=1;" vertex="1" parent="1">
          <mxGeometry x="117.5" y="18" width="120" height="60" as="geometry" />
        </mxCell>
        <mxCell id="uS74tkU6HloKjrL8f_Z_-23" value="" style="group" vertex="1" connectable="0" parent="1">
          <mxGeometry x="-69" y="10" width="109" height="120" as="geometry" />
        </mxCell>
        <mxCell id="uS74tkU6HloKjrL8f_Z_-17" value="API" style="rounded=0;whiteSpace=wrap;html=1;" vertex="1" parent="uS74tkU6HloKjrL8f_Z_-23">
          <mxGeometry width="90" height="96" as="geometry" />
        </mxCell>
        <mxCell id="uS74tkU6HloKjrL8f_Z_-22" value="&lt;b&gt;DTO&lt;/b&gt;" style="rounded=1;whiteSpace=wrap;html=1;" vertex="1" parent="uS74tkU6HloKjrL8f_Z_-23">
          <mxGeometry x="19" y="80" width="90" height="40" as="geometry" />
        </mxCell>
        <mxCell id="uS74tkU6HloKjrL8f_Z_-26" value="DB" style="shape=cylinder3;whiteSpace=wrap;html=1;boundedLbl=1;backgroundOutline=1;size=15;" vertex="1" parent="1">
          <mxGeometry x="540" y="24" width="60" height="80" as="geometry" />
        </mxCell>
        <mxCell id="uS74tkU6HloKjrL8f_Z_-29" style="edgeStyle=orthogonalEdgeStyle;rounded=0;orthogonalLoop=1;jettySize=auto;html=1;" edge="1" parent="1" source="uS74tkU6HloKjrL8f_Z_-28" target="uS74tkU6HloKjrL8f_Z_-26">
          <mxGeometry relative="1" as="geometry" />
        </mxCell>
        <mxCell id="uS74tkU6HloKjrL8f_Z_-35" style="edgeStyle=orthogonalEdgeStyle;rounded=0;orthogonalLoop=1;jettySize=auto;html=1;exitX=0;exitY=0.5;exitDx=0;exitDy=0;entryX=1;entryY=0.5;entryDx=0;entryDy=0;" edge="1" parent="1" source="uS74tkU6HloKjrL8f_Z_-28" target="uS74tkU6HloKjrL8f_Z_-31">
          <mxGeometry relative="1" as="geometry" />
        </mxCell>
        <mxCell id="uS74tkU6HloKjrL8f_Z_-36" value="IOC" style="edgeLabel;html=1;align=center;verticalAlign=middle;resizable=0;points=[];" vertex="1" connectable="0" parent="uS74tkU6HloKjrL8f_Z_-35">
          <mxGeometry x="-0.0192" y="3" relative="1" as="geometry">
            <mxPoint as="offset" />
          </mxGeometry>
        </mxCell>
        <mxCell id="uS74tkU6HloKjrL8f_Z_-28" value="Repository" style="rounded=0;whiteSpace=wrap;html=1;" vertex="1" parent="1">
          <mxGeometry x="350" y="38" width="120" height="52" as="geometry" />
        </mxCell>
        <mxCell id="uS74tkU6HloKjrL8f_Z_-31" value="IRepository" style="rounded=0;whiteSpace=wrap;html=1;" vertex="1" parent="1">
          <mxGeometry x="161" y="110" width="100" height="42" as="geometry" />
        </mxCell>
        <mxCell id="uS74tkU6HloKjrL8f_Z_-39" value="&lt;h5&gt;&lt;font face=&quot;Comic Sans MS&quot;&gt;&lt;font style=&quot;font-size: 18px;&quot;&gt;Arrows point to the&lt;br&gt; &lt;/font&gt;&lt;font style=&quot;font-size: 18px;&quot;&gt;direction of the dependency&lt;/font&gt;&lt;/font&gt;&lt;/h5&gt;" style="text;strokeColor=#6c8ebf;fillColor=#dae8fc;html=1;fontSize=24;fontStyle=1;verticalAlign=middle;align=center;" vertex="1" parent="1">
          <mxGeometry x="635" y="-130" width="270" height="130" as="geometry" />
        </mxCell>
        <mxCell id="uS74tkU6HloKjrL8f_Z_-40" value="&lt;h5&gt;&lt;span style=&quot;font-size: 18px; font-family: &amp;quot;Comic Sans MS&amp;quot;; background-color: initial;&quot;&gt;Nothing on the inside should&lt;/span&gt;&lt;span style=&quot;font-size: 18px; font-family: &amp;quot;Comic Sans MS&amp;quot;; background-color: initial;&quot;&gt;&amp;nbsp;&lt;br&gt;&lt;/span&gt;&lt;span style=&quot;background-color: initial; font-family: &amp;quot;Comic Sans MS&amp;quot;; font-size: 18px;&quot;&gt;depend on anything outside&lt;/span&gt;&lt;/h5&gt;" style="text;strokeColor=#6c8ebf;fillColor=#dae8fc;html=1;fontSize=24;fontStyle=1;verticalAlign=middle;align=center;" vertex="1" parent="1">
          <mxGeometry x="630" y="65" width="280" height="130" as="geometry" />
        </mxCell>
      </root>
    </mxGraphModel>
  </diagram>
</mxfile>
